<svg id="visual" viewBox="0 0 960 540" width="960" height="540" xmlns="http://www.w3.org/2000/svg" xmlns:xlink="http://www.w3.org/1999/xlink" version="1.1"><rect x="0" y="0" width="960" height="540" fill="#001220"></rect><path d="M0 219L22.8 213C45.7 207 91.3 195 137 192C182.7 189 228.3 195 274 191.7C319.7 188.3 365.3 175.7 411.2 174.3C457 173 503 183 548.8 192.5C594.7 202 640.3 211 686 213C731.7 215 777.3 210 823 198.5C868.7 187 914.3 169 937.2 160L960 151L960 0L937.2 0C914.3 0 868.7 0 823 0C777.3 0 731.7 0 686 0C640.3 0 594.7 0 548.8 0C503 0 457 0 411.2 0C365.3 0 319.7 0 274 0C228.3 0 182.7 0 137 0C91.3 0 45.7 0 22.8 0L0 0Z" fill="#fa7268"></path><path d="M0 129L22.8 125.2C45.7 121.3 91.3 113.7 137 116.7C182.7 119.7 228.3 133.3 274 140C319.7 146.7 365.3 146.3 411.2 143.8C457 141.3 503 136.7 548.8 130.3C594.7 124 640.3 116 686 121.5C731.7 127 777.3 146 823 155.8C868.7 165.7 914.3 166.3 937.2 166.7L960 167L960 0L937.2 0C914.3 0 868.7 0 823 0C777.3 0 731.7 0 686 0C640.3 0 594.7 0 548.8 0C503 0 457 0 411.2 0C365.3 0 319.7 0 274 0C228.3 0 182.7 0 137 0C91.3 0 45.7 0 22.8 0L0 0Z" fill="#ef5f67"></path><path d="M0 107L22.8 104.5C45.7 102 91.3 97 137 100.8C182.7 104.7 228.3 117.3 274 121C319.7 124.7 365.3 119.3 411.2 121C457 122.7 503 131.3 548.8 129.7C594.7 128 640.3 116 686 110.7C731.7 105.3 777.3 106.7 823 108.8C868.7 111 914.3 114 937.2 115.5L960 117L960 0L937.2 0C914.3 0 868.7 0 823 0C777.3 0 731.7 0 686 0C640.3 0 594.7 0 548.8 0C503 0 457 0 411.2 0C365.3 0 319.7 0 274 0C228.3 0 182.7 0 137 0C91.3 0 45.7 0 22.8 0L0 0Z" fill="#e34c67"></path><path d="M0 54L22.8 56.8C45.7 59.7 91.3 65.3 137 72.5C182.7 79.7 228.3 88.3 274 88C319.7 87.7 365.3 78.3 411.2 76.8C457 75.3 503 81.7 548.8 81.3C594.7 81 640.3 74 686 67.8C731.7 61.7 777.3 56.3 823 57.2C868.7 58 914.3 65 937.2 68.5L960 72L960 0L937.2 0C914.3 0 868.7 0 823 0C777.3 0 731.7 0 686 0C640.3 0 594.7 0 548.8 0C503 0 457 0 411.2 0C365.3 0 319.7 0 274 0C228.3 0 182.7 0 137 0C91.3 0 45.7 0 22.8 0L0 0Z" fill="#d53867"></path><path d="M0 65L22.8 65C45.7 65 91.3 65 137 59.7C182.7 54.3 228.3 43.7 274 41.7C319.7 39.7 365.3 46.3 411.2 50.8C457 55.3 503 57.7 548.8 55C594.7 52.3 640.3 44.7 686 42.3C731.7 40 777.3 43 823 41.7C868.7 40.3 914.3 34.7 937.2 31.8L960 29L960 0L937.2 0C914.3 0 868.7 0 823 0C777.3 0 731.7 0 686 0C640.3 0 594.7 0 548.8 0C503 0 457 0 411.2 0C365.3 0 319.7 0 274 0C228.3 0 182.7 0 137 0C91.3 0 45.7 0 22.8 0L0 0Z" fill="#c62368"></path></svg>